<?xml version="1.0" standalone="no"?>
<!DOCTYPE svg PUBLIC "-//W3C//DTD SVG 20010904//EN"
 "http://www.w3.org/TR/2001/REC-SVG-20010904/DTD/svg10.dtd">
<svg version="1.0" xmlns="http://www.w3.org/2000/svg"
 width="1008.000000pt" height="1008.000000pt" viewBox="0 0 1008.000000 1008.000000"
 preserveAspectRatio="xMidYMid meet">
<metadata>
Created by potrace 1.11, written by Peter Selinger 2001-2013
</metadata>
<g transform="translate(0.000000,1008.000000) scale(0.100000,-0.100000)"
fill="#000000" stroke="none">
<path d="M8967 9604 c-7 -7 -33 -9 -242 -18 -55 -3 -100 -5 -100 -6 0 -1 -27
-3 -60 -5 -81 -6 -257 -20 -360 -29 -54 -5 -134 -15 -175 -21 -22 -3 -87 -11
-180 -20 -14 -2 -25 -4 -25 -5 0 -1 -11 -3 -25 -5 -99 -11 -247 -33 -330 -50
-13 -2 -42 -7 -65 -11 -22 -3 -59 -10 -83 -15 -23 -5 -59 -12 -80 -15 -20 -4
-41 -7 -47 -8 -5 -2 -37 -8 -70 -15 -170 -36 -574 -138 -625 -158 -17 -7 -27
-10 -55 -17 -11 -3 -74 -23 -140 -45 -66 -23 -129 -43 -140 -46 -11 -2 -38
-12 -60 -21 -22 -9 -49 -20 -60 -25 -11 -4 -31 -11 -45 -15 -14 -4 -48 -18
-77 -31 -28 -14 -57 -26 -65 -27 -42 -9 -385 -169 -513 -240 -22 -13 -66 -37
-99 -55 -189 -106 -452 -282 -586 -392 -14 -11 -38 -30 -53 -42 -15 -12 -38
-31 -51 -42 -12 -11 -53 -47 -90 -80 -55 -49 -205 -197 -287 -285 -16 -17
-159 -190 -182 -220 -62 -81 -97 -131 -97 -139 0 -5 -3 -11 -8 -13 -9 -4 -93
-131 -117 -178 -10 -19 -21 -37 -24 -40 -12 -10 -148 -277 -153 -301 -2 -8 -5
-16 -8 -19 -9 -9 -81 -197 -111 -293 -49 -151 -88 -319 -92 -384 0 -7 -4 -13
-9 -13 -5 0 -7 -4 -4 -8 3 -5 0 -40 -6 -78 -8 -49 -12 -883 -12 -2892 l-2
-2822 480 2 480 3 0 868 c0 781 1 867 15 867 9 1 90 3 181 5 91 2 194 6 230 9
36 3 106 8 155 11 81 5 122 9 205 20 14 1 54 6 90 9 36 4 72 8 80 11 8 2 41 7
74 10 32 3 61 7 65 9 3 2 31 7 61 11 30 3 73 10 95 15 22 5 56 11 75 15 33 5
56 9 105 19 22 5 151 34 177 41 140 33 208 52 286 76 51 16 98 27 103 24 5 -4
9 -1 9 4 0 6 8 11 18 11 10 0 22 3 26 8 4 4 11 7 14 7 19 1 187 61 190 67 2 5
10 8 18 8 50 0 545 228 721 332 45 26 86 48 92 48 6 0 11 4 11 8 0 5 18 17 40
27 22 10 40 21 40 25 0 4 14 13 30 20 17 7 30 16 30 20 0 4 8 10 18 14 9 3 29
14 43 23 35 24 97 68 135 95 17 13 44 32 60 43 16 11 31 22 34 25 3 3 25 21
50 40 25 19 47 37 50 40 3 4 14 13 26 21 22 15 101 82 193 164 78 69 295 288
358 360 28 33 62 71 74 85 108 124 367 471 399 535 3 5 26 42 51 80 141 216
330 584 443 860 21 50 43 104 50 120 8 17 17 41 21 55 4 14 11 30 14 35 4 6
18 44 32 85 13 41 26 77 29 80 3 3 6 12 8 20 2 8 21 68 42 132 22 64 41 127
44 140 2 13 9 35 15 51 6 15 13 38 15 50 3 12 12 47 21 77 9 30 17 62 19 70 2
8 14 53 26 100 22 86 31 123 35 150 1 8 7 33 13 55 6 22 14 56 17 75 3 19 9
44 12 55 3 11 7 29 9 40 1 11 9 55 18 97 9 43 18 94 21 114 2 20 6 44 9 53 3
9 7 39 11 66 3 28 10 73 15 100 5 28 12 68 14 90 3 22 7 56 10 75 3 19 8 62
11 95 4 33 9 76 12 95 3 19 7 58 8 85 2 28 4 50 5 50 1 0 3 25 5 55 3 30 7 87
10 125 16 210 20 345 20 685 0 333 -6 520 -21 615 -2 17 -6 62 -9 100 -2 39
-4 70 -5 70 -1 0 -3 23 -6 50 -2 28 -6 68 -8 90 -2 22 -5 44 -5 48 -1 10 -932
6 -998 -4 -23 -3 -44 -2 -45 3 -2 5 -7 6 -11 2z m83 -966 c0 9 56 9 66 -1 9
-9 11 -198 2 -203 -4 -3 -3 -15 2 -28 5 -13 6 -26 4 -29 -3 -3 -8 -50 -10
-104 -6 -138 -12 -248 -14 -248 -2 0 -13 -155 -14 -192 -1 -18 -3 -33 -6 -33
-3 0 -5 -15 -6 -32 0 -32 -6 -85 -20 -198 -4 -30 -8 -65 -8 -77 -1 -13 -3 -23
-6 -23 -3 0 -5 -12 -6 -27 -1 -26 -7 -67 -19 -133 -2 -14 -6 -41 -9 -60 -5
-30 -15 -83 -30 -155 -2 -11 -7 -40 -12 -65 -9 -50 -10 -58 -14 -65 -1 -3 -4
-13 -5 -22 -7 -55 -19 -104 -26 -109 -5 -3 -7 -9 -5 -13 5 -7 -9 -71 -34 -161
-36 -130 -54 -195 -76 -270 -33 -110 -31 -103 -34 -115 -1 -5 -11 -32 -22 -60
-11 -27 -21 -54 -22 -60 -4 -17 -28 -89 -41 -120 -7 -16 -29 -73 -50 -125 -35
-87 -60 -145 -102 -240 -139 -311 -329 -630 -548 -918 -5 -7 -18 -21 -27 -30
-10 -9 -18 -20 -18 -24 0 -5 -8 -16 -17 -26 -10 -10 -40 -44 -68 -77 -87 -103
-223 -243 -340 -350 -62 -57 -75 -67 -160 -136 -126 -100 -163 -129 -170 -129
-3 0 -13 -6 -21 -12 -8 -7 -20 -17 -27 -23 -7 -5 -39 -28 -72 -49 -33 -21 -72
-47 -87 -57 -15 -11 -30 -19 -33 -19 -3 0 -22 -11 -43 -24 -94 -61 -465 -248
-517 -261 -5 -1 -23 -8 -40 -14 -52 -22 -159 -62 -175 -66 -8 -3 -42 -14 -75
-25 -33 -12 -67 -23 -75 -25 -8 -2 -35 -10 -60 -18 -41 -14 -110 -33 -152 -43
-44 -10 -57 -13 -118 -29 -70 -18 -94 -24 -125 -30 -11 -2 -33 -6 -50 -10 -91
-18 -134 -25 -170 -30 -22 -3 -62 -10 -90 -15 -52 -9 -126 -20 -185 -26 -19
-2 -60 -6 -90 -9 -122 -12 -237 -21 -408 -30 -82 -4 -83 -4 -76 18 4 12 11 25
16 28 5 3 10 10 10 15 0 5 6 24 14 43 8 18 14 35 14 37 0 2 14 34 31 71 17 38
42 97 56 133 64 170 87 228 104 267 11 24 19 45 19 48 0 3 9 27 21 53 12 26
25 56 29 67 5 11 26 56 46 100 20 44 38 82 38 85 4 24 261 535 276 550 3 3 10
14 16 25 49 90 70 125 95 156 16 20 29 40 29 43 0 4 17 32 37 64 34 54 57 90
108 172 46 74 139 215 145 220 3 3 35 43 70 90 36 47 68 87 73 88 4 2 7 9 7
15 0 7 10 23 23 37 12 14 42 52 66 85 25 33 48 62 51 65 4 3 31 34 61 70 29
36 55 67 58 70 4 3 24 26 46 51 144 164 181 205 275 299 58 58 128 123 155
145 28 22 52 42 55 45 3 3 41 37 85 75 44 39 89 79 100 90 12 11 43 38 70 60
47 40 124 106 155 135 36 33 99 80 109 80 5 0 11 3 13 8 2 4 39 30 83 57 43
27 134 93 202 147 134 107 227 176 228 168 0 -3 25 11 55 30 30 19 60 37 65
39 6 2 25 17 44 32 19 15 39 25 44 22 6 -3 7 -1 3 6 -5 7 -12 9 -19 3 -7 -5
-77 -33 -157 -62 -80 -29 -150 -57 -156 -61 -6 -5 -19 -10 -30 -12 -26 -5 -45
-13 -149 -63 -116 -54 -183 -84 -192 -84 -13 0 -98 -44 -105 -54 -4 -6 -8 -7
-8 -2 0 4 -11 1 -25 -8 -24 -16 -62 -37 -180 -101 -176 -96 -229 -127 -233
-137 -2 -4 -8 -8 -14 -8 -6 0 -26 -11 -45 -26 -18 -14 -33 -22 -33 -19 0 3 -9
-2 -19 -12 -11 -10 -37 -27 -58 -38 -21 -11 -41 -23 -44 -28 -3 -4 -21 -15
-40 -25 -57 -30 -132 -74 -143 -84 -6 -5 -42 -31 -81 -58 -38 -27 -77 -55 -85
-63 -8 -7 -37 -29 -65 -47 -27 -19 -51 -37 -53 -42 -2 -4 -9 -8 -15 -8 -7 0
-25 -12 -42 -28 -16 -15 -66 -54 -110 -87 -44 -33 -82 -62 -85 -65 -3 -3 -47
-40 -98 -83 -51 -43 -131 -115 -178 -160 -245 -233 -339 -324 -358 -345 -12
-13 -41 -45 -66 -71 -25 -26 -70 -76 -100 -110 -30 -35 -68 -78 -85 -95 -16
-18 -48 -54 -70 -81 -21 -28 -42 -52 -45 -55 -3 -3 -27 -32 -55 -65 -27 -33
-62 -73 -77 -90 -25 -29 -42 -48 -80 -94 -10 -11 -29 -39 -44 -61 -15 -22 -30
-40 -33 -40 -4 0 -7 281 -7 625 0 344 2 625 5 625 4 0 7 19 8 43 2 23 16 94
33 157 17 63 32 122 34 131 15 59 138 328 189 414 36 62 112 181 117 185 3 3
23 30 45 60 22 30 44 60 50 66 5 6 30 35 55 65 55 65 250 261 311 311 24 20
54 44 66 55 113 94 496 347 519 343 4 -1 10 2 13 7 8 12 291 155 291 147 0 -4
6 -2 13 4 15 12 163 77 232 102 28 10 86 32 130 49 44 17 82 31 85 32 12 4 29
9 85 28 98 32 357 108 398 115 12 3 22 5 22 6 0 2 16 6 55 13 14 3 26 6 28 8
1 1 7 3 12 4 6 1 13 4 18 5 4 1 12 3 17 4 6 1 35 7 65 14 30 7 65 14 78 17 12
3 32 7 45 10 34 8 69 15 106 21 18 3 43 7 55 10 78 15 249 44 291 50 28 3 57
7 65 9 42 8 171 26 210 30 25 2 45 4 45 5 0 1 20 3 45 5 25 2 65 6 90 9 25 3
71 8 103 11 32 3 77 7 100 10 94 10 277 22 461 30 54 2 101 7 104 9 2 3 13 1
23 -5 11 -5 19 -6 19 -1z"/>
<path d="M1064 8821 c-2 -2 -57 -6 -121 -8 -203 -7 -213 -8 -213 -17 0 -4 -6
-3 -13 3 -8 6 -16 8 -19 6 -3 -3 -36 -8 -73 -10 -83 -6 -158 -14 -209 -21 -39
-5 -73 -8 -281 -20 -60 -3 -113 -10 -116 -15 -9 -14 -12 -132 -13 -414 -1
-266 5 -390 29 -565 2 -14 6 -52 10 -84 4 -33 9 -69 11 -80 2 -12 7 -37 10
-56 5 -38 15 -86 39 -195 9 -38 17 -80 20 -92 8 -46 58 -221 91 -323 122 -370
288 -690 497 -959 93 -120 322 -354 412 -421 33 -25 66 -51 73 -58 22 -20 211
-142 221 -142 5 0 11 -3 13 -7 3 -9 153 -85 165 -85 4 1 15 -5 23 -12 8 -7 53
-27 100 -45 47 -18 94 -37 105 -41 20 -9 130 -43 175 -55 14 -3 41 -11 60 -16
31 -8 133 -30 200 -43 14 -3 34 -7 45 -9 17 -4 84 -13 160 -23 11 -1 60 -5
108 -9 48 -3 97 -8 107 -10 11 -2 23 2 27 8 9 13 12 706 3 708 -3 1 -27 3 -55
5 -69 5 -144 12 -185 19 -19 3 -53 8 -75 10 -22 3 -48 8 -57 11 -17 5 -41 10
-92 19 -16 3 -37 10 -46 15 -10 5 -20 6 -24 3 -3 -3 -6 -1 -6 6 0 7 -6 11 -12
8 -7 -2 -42 7 -78 20 -36 14 -78 29 -95 35 -66 25 -271 136 -330 180 -159 119
-267 222 -355 338 -14 18 -31 39 -37 46 -7 7 -13 17 -13 23 0 6 -3 11 -7 11
-5 0 -26 30 -48 66 -22 36 -45 71 -50 78 -16 17 -166 316 -159 316 4 0 2 6 -4
13 -18 23 -108 286 -127 370 -2 10 -7 27 -10 37 -6 20 -15 54 -20 85 -4 21
-11 52 -20 95 -4 14 -8 35 -11 48 -2 12 -6 34 -9 50 -3 15 -8 43 -10 62 -4 40
-13 104 -20 140 -8 39 -19 234 -16 265 1 6 16 11 34 11 17 1 79 4 137 7 180
11 598 7 775 -8 44 -3 100 -8 125 -10 25 -2 45 -4 45 -5 0 -1 11 -3 25 -5 14
-1 54 -5 89 -9 35 -3 73 -8 85 -11 11 -2 39 -7 61 -11 80 -12 143 -24 250 -48
6 -1 40 -8 78 -16 37 -7 67 -17 67 -21 0 -4 8 -6 17 -5 10 2 42 -6 73 -17 30
-10 63 -21 73 -23 45 -10 54 -13 82 -25 17 -6 35 -13 40 -14 61 -14 353 -145
427 -191 l36 -23 57 76 c32 42 66 85 75 97 10 12 44 53 76 91 57 69 71 84 192
215 l60 64 -26 23 c-15 13 -39 29 -54 36 -16 6 -28 15 -28 19 0 5 -7 8 -15 8
-8 0 -15 3 -15 8 0 4 -10 12 -23 18 -12 6 -77 39 -144 73 -67 33 -124 61 -127
61 -4 0 -25 9 -49 19 -78 35 -179 72 -306 113 -69 22 -133 42 -141 45 -8 3
-22 7 -30 8 -8 2 -24 6 -35 9 -11 3 -44 11 -72 17 -29 7 -53 16 -53 21 0 5 -4
7 -10 3 -5 -3 -38 1 -74 9 -101 24 -119 27 -151 31 -16 2 -30 4 -30 5 0 1 -9
3 -20 4 -50 7 -112 17 -135 21 -101 18 -248 35 -435 50 -165 13 -672 25 -681
16z"/>
<path d="M1585 7361 c2 -4 28 -18 57 -31 29 -14 55 -27 58 -30 7 -8 90 -52
135 -73 22 -10 47 -23 55 -28 8 -4 30 -16 48 -25 17 -9 32 -20 32 -25 0 -5 7
-9 15 -9 9 0 18 -7 21 -15 4 -8 12 -15 20 -15 7 0 19 -8 26 -17 7 -10 25 -24
41 -32 15 -8 27 -18 27 -23 0 -4 5 -8 11 -8 17 0 121 -75 178 -129 30 -28 57
-51 60 -51 7 0 93 -85 163 -161 41 -45 77 -87 145 -173 18 -23 40 -50 49 -60
18 -20 18 -19 25 6 4 14 9 48 13 76 3 28 11 63 17 79 6 15 10 28 9 28 -1 0 2
18 6 40 10 51 11 54 14 58 1 1 3 9 5 17 2 8 12 40 23 72 11 31 18 59 14 62 -3
4 -44 25 -91 47 -47 23 -88 45 -91 49 -8 11 -66 40 -155 75 -44 18 -139 57
-210 87 -72 30 -144 58 -160 63 -17 4 -36 10 -42 12 -33 8 -39 10 -53 16 -34
14 -162 48 -192 52 -45 5 -89 15 -113 24 -39 16 -164 48 -160 42z"/>
</g>
</svg>
