<?xml version="1.0" encoding="utf-8"?>
<!-- Generator: Adobe Illustrator 17.0.0, SVG Export Plug-In . SVG Version: 6.00 Build 0)  -->
<!DOCTYPE svg PUBLIC "-//W3C//DTD SVG 1.1//EN" "http://www.w3.org/Graphics/SVG/1.1/DTD/svg11.dtd">
<svg version="1.1" id="Layer_1" xmlns="http://www.w3.org/2000/svg" xmlns:xlink="http://www.w3.org/1999/xlink" x="0px" y="0px"
	 width="65px" height="65px" viewBox="0 0 65 65" enable-background="new 0 0 65 65" xml:space="preserve">
<text transform="matrix(1 0 0 1 20.8839 120.5223)" fill="#03CE6A" font-family="'Poppins-Medium'" font-size="58.6846">r</text>
<path fill="none" stroke="#03CE6A" stroke-width="7.5013" stroke-miterlimit="10" d="M19.708,46.176c0,0,34.305,5.955,40.26-37.423
	c0,0-72.014-8.505-51.599,32.038"/>
<line stroke="#03CE6A" stroke-width="6.5578" stroke-miterlimit="10" x1="18.5" y1="60.363" x2="18.5" y2="28.113"/>
<g>
	<path fill="#03CE6A" d="M16.286,39.331c0,0,0.074-0.095,0.214-0.274c0.153-0.198,0.374-0.479,0.642-0.8
		c0.541-0.661,1.328-1.566,2.3-2.617c0.982-1.042,2.134-2.239,3.448-3.439c1.294-1.216,2.75-2.431,4.235-3.59
		c0.771-0.553,1.508-1.132,2.286-1.641c0.789-0.496,1.513-1.034,2.296-1.452c0.774-0.426,1.48-0.885,2.221-1.213
		c0.732-0.338,1.39-0.703,2.047-0.949c0.649-0.25,1.243-0.479,1.77-0.682c0.528-0.192,1.013-0.299,1.396-0.416
		c0.77-0.217,1.21-0.341,1.21-0.341s-0.401,0.22-1.102,0.605c-0.345,0.2-0.778,0.405-1.24,0.706
		c-0.455,0.308-0.968,0.656-1.528,1.036c-0.559,0.37-1.108,0.867-1.711,1.335c-0.611,0.457-1.18,1.05-1.799,1.603
		c-0.626,0.544-1.191,1.212-1.803,1.827c-0.602,0.628-1.161,1.327-1.742,1.986c-1.114,1.379-2.177,2.785-3.095,4.161
		c-0.935,1.359-1.724,2.684-2.384,3.815c-0.649,1.139-1.158,2.1-1.487,2.769c-0.172,0.341-0.286,0.587-0.359,0.75
		c-0.085,0.183-0.13,0.28-0.13,0.28L16.286,39.331z"/>
</g>
<path stroke="#03CE6A" stroke-width="6.6533" stroke-miterlimit="10" d="M97.518,139.009"/>
<path stroke="#03CE6A" stroke-width="6.6533" stroke-miterlimit="10" d="M97.518,100.071"/>
<g>
	<line x1="-11.484" y1="43.007" x2="-11.499" y2="23.205"/>
	<polygon fill="#03CE6A" points="-14.811,43.01 -11.499,23.205 -8.158,43.005 	"/>
</g>
</svg>
