<?xml version="1.0" encoding="utf-8"?>
<!-- Generator: Adobe Illustrator 17.0.0, SVG Export Plug-In . SVG Version: 6.00 Build 0)  -->
<!DOCTYPE svg PUBLIC "-//W3C//DTD SVG 1.1//EN" "http://www.w3.org/Graphics/SVG/1.1/DTD/svg11.dtd">
<svg version="1.1" id="Layer_1" xmlns="http://www.w3.org/2000/svg" xmlns:xlink="http://www.w3.org/1999/xlink" x="0px" y="0px"
	 width="65px" height="65px" viewBox="0 0 65 65" enable-background="new 0 0 65 65" xml:space="preserve">
<path fill="none" stroke="#03CE6A" stroke-width="5" stroke-miterlimit="10" d="M26.195,57.904V26.596c0,0,0-17.799,32.5-17.799
	c0,0,3.402,36.497-30.095,36.497"/>
<g>
	<path fill="#03CE6A" d="M25.202,40.397c0,0,0.303-0.401,0.704-1.105s1.105-1.798,1.896-3.098c0.401-0.596,0.899-1.3,1.397-2.004
		c0.498-0.704,1.105-1.397,1.701-2.199c0.596-0.704,1.203-1.495,1.896-2.199c0.704-0.704,1.397-1.397,2.102-2.102
		c0.802-0.704,1.495-1.3,2.297-2.004c0.802-0.596,1.495-1.203,2.297-1.701c0.802-0.498,1.495-0.997,2.297-1.495
		c0.704-0.401,1.397-0.899,2.102-1.203s1.3-0.596,1.798-0.899c0.498-0.195,0.997-0.401,1.398-0.596
		c0.802-0.303,1.202-0.498,1.202-0.498s-0.401,0.303-1.105,0.802c-0.401,0.195-0.802,0.498-1.3,0.899s-0.997,0.802-1.603,1.203
		c-0.596,0.401-1.202,0.997-1.798,1.495c-0.596,0.498-1.202,1.203-1.896,1.798c-0.596,0.596-1.203,1.3-1.798,2.004
		c-0.596,0.704-1.202,1.495-1.701,2.199c-0.498,0.802-1.105,1.495-1.603,2.297c-0.498,0.802-0.899,1.603-1.397,2.297
		c-0.401,0.802-0.802,1.495-1.105,2.199c-0.303,0.704-0.596,1.397-0.899,2.102c-0.498,1.3-0.899,2.405-1.202,3.196
		c-0.303,0.802-0.498,1.3-0.498,1.3c-0.596,1.603-2.297,2.297-3.9,1.701s-2.297-2.297-1.701-3.9
		C24.996,40.798,24.996,40.603,25.202,40.397L25.202,40.397z"/>
</g>
<path fill="none" stroke="#03CE6A" stroke-miterlimit="10" d="M20.995,37.104"/>
<path fill="none" stroke="#03CE6A" stroke-width="3" stroke-miterlimit="10" d="M21.797,30.897
	C6.5,30.897,6.598,12.502,6.598,12.502c12.599-1.495,18.904,3.802,18.904,3.802"/>
</svg>
