<?xml version="1.0" encoding="utf-8"?>
<!-- Generator: Adobe Illustrator 17.0.0, SVG Export Plug-In . SVG Version: 6.00 Build 0)  -->
<!DOCTYPE svg PUBLIC "-//W3C//DTD SVG 1.1//EN" "http://www.w3.org/Graphics/SVG/1.1/DTD/svg11.dtd">
<svg version="1.1" id="Layer_1" xmlns="http://www.w3.org/2000/svg" xmlns:xlink="http://www.w3.org/1999/xlink" x="0px" y="0px"
	 width="354.949px" height="65px" viewBox="0 0 354.949 65" enable-background="new 0 0 354.949 65" xml:space="preserve">
<path stroke="#03CE6A" stroke-width="6.6533" stroke-miterlimit="10" d="M97.518,139.009"/>
<path fill="none" stroke="#08A045" stroke-width="6" stroke-miterlimit="10" d="M24.509,61.669V27.044c0,0,0-19.685,35.943-19.685
	c0,0,3.762,40.364-33.283,40.364"/>
<g>
	<path fill="#08A045" d="M23.137,40.924c0,0,0.349-0.433,0.816-1.198s1.282-1.951,2.2-3.361c0.463-0.645,1.038-1.407,1.613-2.168
		s1.269-1.507,1.954-2.374c0.682-0.758,1.38-1.612,2.17-2.367c0.802-0.755,1.592-1.498,2.394-2.252
		c0.91-0.751,1.697-1.387,2.607-2.138c0.906-0.632,1.693-1.279,2.596-1.803s1.686-1.051,2.589-1.575
		c0.792-0.419,1.575-0.947,2.364-1.258c0.789-0.312,1.457-0.615,2.018-0.933c0.557-0.199,1.115-0.409,1.565-0.611
		c0.896-0.308,1.346-0.51,1.346-0.51s-0.453,0.322-1.249,0.849c-0.45,0.202-0.903,0.524-1.467,0.95s-1.129,0.852-1.813,1.275
		c-0.672,0.423-1.363,1.061-2.038,1.592s-1.37,1.289-2.156,1.924c-0.679,0.639-1.373,1.396-2.056,2.155
		c-0.682,0.758-1.38,1.612-1.954,2.374c-0.578,0.869-1.272,1.615-1.85,2.485c-0.578,0.869-1.048,1.742-1.622,2.492
		c-0.47,0.873-0.937,1.626-1.296,2.394s-0.706,1.525-1.065,2.293c-0.595,1.42-1.075,2.628-1.437,3.492
		c-0.362,0.876-0.595,1.42-0.595,1.42c-0.713,1.752-2.616,2.461-4.369,1.748c-1.752-0.713-2.461-2.616-1.748-4.369
		C22.896,41.36,22.903,41.145,23.137,40.924L23.137,40.924z"/>
</g>
<path fill="none" stroke="#03CE6A" stroke-width="1.1059" stroke-miterlimit="10" d="M18.758,38.666"/>
<g enable-background="new    ">
	<path fill="#0B6E32" d="M83.207,40.201h-5.483V7.181h5.483v5.362c1.868-3.676,5.423-5.965,10.666-5.965v5.664h-1.446
		c-5.242,0-9.219,2.35-9.219,10.002L83.207,40.201L83.207,40.201z"/>
	<path fill="#0B6E32" d="M114.6,40.743c-9.34,0-16.45-6.628-16.45-17.112c0-10.425,7.352-16.992,16.691-16.992
		c9.4,0,16.691,6.567,16.691,16.992C131.533,34.115,124,40.743,114.6,40.743z M114.6,35.923c5.725,0,11.328-3.917,11.328-12.292
		c0-8.315-5.483-12.232-11.147-12.232c-5.784,0-11.027,3.917-11.027,12.232C103.754,32.006,108.875,35.923,114.6,35.923z"/>
	<path fill="#0B6E32" d="M152.38,6.639c6.146,0,10.364,3.133,12.292,6.567V7.181h5.544v33.021h-5.544v-6.146
		c-1.988,3.556-6.267,6.688-12.353,6.688c-8.797,0-15.606-6.93-15.606-17.173C136.713,13.267,143.523,6.639,152.38,6.639z
		 M153.465,11.398c-6.026,0-11.147,4.398-11.147,12.172s5.121,12.353,11.147,12.353c6.025,0,11.207-4.52,11.207-12.292
		C164.672,15.978,159.491,11.398,153.465,11.398z"/>
	<path fill="#0B6E32" d="M227.158,21.521c0-6.749-3.615-10.184-9.038-10.184c-5.544,0-9.34,3.556-9.34,10.666V40.2h-5.423V21.52
		c0-6.749-3.616-10.184-9.039-10.184c-5.544,0-9.34,3.556-9.34,10.666v18.197h-5.483V7.181h5.483v4.76
		c2.169-3.495,6.086-5.362,10.425-5.362c5.423,0,9.942,2.41,12.111,7.351c1.929-4.76,6.628-7.351,11.689-7.351
		c7.532,0,13.378,4.699,13.378,14.16v19.463h-5.424L227.158,21.521L227.158,21.521z"/>
	<path fill="#0B6E32" d="M255.839,40.743c-9.4,0-16.33-6.628-16.33-17.112c0-10.425,6.688-16.992,16.33-16.992
		c9.581,0,15.848,6.748,15.848,15.787c0,1.205-0.061,2.169-0.181,3.313h-26.393c0.422,6.688,5.121,10.364,10.726,10.364
		c4.94,0,8.074-2.53,9.279-6.086h5.905C269.336,36.043,264.033,40.743,255.839,40.743z M245.173,21.28h20.85
		c0.06-6.447-4.761-10.003-10.425-10.003C250.234,11.277,245.775,14.833,245.173,21.28z"/>
	<path fill="#0B6E32" d="M284.399,40.201h-5.483V7.181h5.483v5.362c1.868-3.676,5.423-5.965,10.666-5.965v5.664h-1.446
		c-5.242,0-9.22,2.35-9.22,10.002V40.201z"/>
	<path fill="#0B6E32" d="M313.081,40.743c-7.713,0-13.137-4.218-13.498-10.243h5.664c0.302,3.193,3.134,5.604,7.773,5.604
		c4.338,0,6.749-2.169,6.749-4.881c0-7.352-19.523-3.073-19.523-15.365c0-5.062,4.76-9.219,12.111-9.219
		c7.291,0,12.111,3.916,12.474,10.363h-5.483c-0.241-3.313-2.772-5.725-7.171-5.725c-4.037,0-6.447,1.929-6.447,4.58
		c0,7.833,19.161,3.555,19.402,15.365C325.132,36.646,320.372,40.743,313.081,40.743z"/>
</g>
<g enable-background="new    ">
	<path fill="#646464" d="M82.967,87.825h-1.474v3.77h-3.719V79.732h5.193c2.982,0,4.507,1.676,4.507,4.071
		C87.474,85.999,85.949,87.825,82.967,87.825z M82.548,84.894c0.837,0,1.156-0.437,1.156-1.09s-0.318-1.089-1.156-1.089h-1.056
		v2.179H82.548z"/>
	<path fill="#646464" d="M94.36,79.732v9.048h3.585v2.814H90.64V79.732H94.36z"/>
	<path fill="#646464" d="M108.72,89.802h-3.954l-0.586,1.793h-3.904l4.339-11.862h4.289l4.323,11.862h-3.921L108.72,89.802z
		 M106.743,83.703l-1.072,3.301h2.145L106.743,83.703z"/>
	<path fill="#646464" d="M127.434,79.732v11.862h-3.72l-3.938-5.965v5.965h-3.719V79.732h3.719l3.938,6.065v-6.065H127.434z"/>
	<path fill="#646464" d="M130.434,79.732h9.985v2.949h-3.15v8.913h-3.719v-8.912h-3.116L130.434,79.732L130.434,79.732z"/>
	<path fill="#646464" d="M153.455,87.825h-1.475v3.77h-3.719V79.732h5.193c2.982,0,4.507,1.676,4.507,4.071
		C157.962,85.999,156.437,87.825,153.455,87.825z M153.036,84.894c0.838,0,1.156-0.437,1.156-1.09s-0.318-1.089-1.156-1.089h-1.056
		v2.179H153.036z"/>
	<path fill="#646464" d="M166.91,91.712c-3.368,0-6.115-2.529-6.115-6.099c0-3.568,2.747-6.081,6.115-6.081
		c3.384,0,6.081,2.513,6.081,6.081C172.991,89.183,170.261,91.712,166.91,91.712z M166.91,88.244c1.491,0,2.312-1.056,2.312-2.631
		c0-1.608-0.82-2.646-2.312-2.646c-1.525,0-2.329,1.038-2.329,2.646C164.581,87.189,165.385,88.244,166.91,88.244z"/>
	<path fill="#646464" d="M175.991,79.732h4.004l1.072,7.473l1.608-7.473h4.055l1.608,7.473l1.072-7.473h4.004L190.7,91.594h-4.624
		l-1.374-6.735l-1.374,6.735h-4.624L175.991,79.732z"/>
	<path fill="#646464" d="M204.659,82.698h-4.188v1.458h3.686v2.798h-3.686v1.675h4.188v2.966h-7.908V79.732h7.908V82.698z"/>
	<path fill="#646464" d="M213.589,79.732c2.982,0,4.507,1.709,4.507,3.888c0,1.558-0.871,2.881-2.562,3.435l2.58,4.54h-4.089
		l-2.228-4.256h-0.018v4.256h-3.719V79.732H213.589z M213.254,82.849h-1.475v2.011h1.475c0.704,0,1.072-0.302,1.072-1.005
		C214.326,83.251,213.958,82.849,213.254,82.849z"/>
	<path fill="#646464" d="M229.188,82.698H225v1.458h3.686v2.798H225v1.675h4.188v2.966h-7.908V79.732h7.908V82.698z"/>
	<path fill="#646464" d="M243.698,85.63c0,3.385-2.379,5.965-6.165,5.965h-4.942V79.732h4.942
		C241.319,79.732,243.698,82.212,243.698,85.63z M237.198,88.277c1.642,0,2.73-0.922,2.73-2.647s-1.089-2.646-2.73-2.646h-0.888
		v5.294L237.198,88.277L237.198,88.277z"/>
	<path fill="#646464" d="M257.068,87.825h-1.475v3.77h-3.719V79.732h5.193c2.982,0,4.507,1.676,4.507,4.071
		C261.575,85.999,260.051,87.825,257.068,87.825z M256.649,84.894c0.838,0,1.156-0.437,1.156-1.09s-0.318-1.089-1.156-1.089h-1.056
		v2.179H256.649z"/>
	<path fill="#646464" d="M272.651,82.698h-4.188v1.458h3.686v2.798h-3.686v1.675h4.188v2.966h-7.908V79.732h7.908V82.698z"/>
	<path fill="#646464" d="M281.833,91.712c-3.368,0-6.115-2.529-6.115-6.099c0-3.568,2.747-6.081,6.115-6.081
		c3.384,0,6.081,2.513,6.081,6.081C287.914,89.183,285.183,91.712,281.833,91.712z M281.833,88.244c1.491,0,2.312-1.056,2.312-2.631
		c0-1.608-0.82-2.646-2.312-2.646c-1.524,0-2.329,1.038-2.329,2.646C279.504,87.189,280.308,88.244,281.833,88.244z"/>
	<path fill="#646464" d="M296.443,87.825h-1.475v3.77h-3.719V79.732h5.193c2.982,0,4.507,1.676,4.507,4.071
		C300.95,85.999,299.426,87.825,296.443,87.825z M296.024,84.894c0.838,0,1.156-0.437,1.156-1.09s-0.318-1.089-1.156-1.089h-1.056
		v2.179H296.024z"/>
	<path fill="#646464" d="M307.836,79.732v9.048h3.586v2.814h-7.305V79.732H307.836z"/>
	<path fill="#646464" d="M322.498,82.698h-4.189v1.458h3.687v2.798h-3.687v1.675h4.189v2.966h-7.908V79.732h7.908V82.698z"/>
</g>
<g>
	<path fill="none" d="M5.029,13.815c0.164,2.792,0.926,8.033,4.216,11.504c2.031,2.143,4.812,3.314,8.264,3.512v-2.787
		c0-0.138,0.013-0.743,0.156-1.659c-0.12-0.167-0.254-0.333-0.389-0.518c-0.19-0.236-0.368-0.513-0.606-0.747
		c-0.23-0.248-0.467-0.504-0.708-0.764c-0.233-0.277-0.521-0.494-0.792-0.739c-0.277-0.242-0.555-0.485-0.828-0.724
		c-0.284-0.227-0.588-0.412-0.872-0.615c-0.29-0.199-0.57-0.391-0.835-0.573c-0.26-0.2-0.544-0.308-0.791-0.446
		c-1.018-0.522-1.696-0.87-1.696-0.87s0.755,0.149,1.887,0.372c0.283,0.066,0.608,0.097,0.918,0.219
		c0.319,0.106,0.656,0.218,1.004,0.334c0.347,0.122,0.721,0.228,1.081,0.378c0.355,0.166,0.715,0.334,1.075,0.503
		c0.359,0.176,0.739,0.327,1.069,0.546c0.342,0.206,0.678,0.41,1.003,0.606c0.071,0.04,0.133,0.087,0.199,0.131
		c0.496-1.483,1.271-3.203,2.493-4.987C19.571,15.681,14.57,13.084,5.029,13.815z"/>
	<path fill="#0B6E32" d="M9.245,25.319c-3.29-3.471-4.052-8.712-4.216-11.504c9.541-0.732,14.542,1.865,15.847,2.674
		c0.781-1.141,1.753-2.305,2.939-3.447C22.48,12.09,15.823,7.961,2.486,9.543L0.613,9.766l-0.108,1.883
		c-0.024,0.422-0.524,10.415,5.453,16.745c2.906,3.077,6.796,4.722,11.55,4.936v-4.498C14.057,28.633,11.276,27.462,9.245,25.319z"
		/>
	<path fill="#0B6E32" d="M17.18,20.74c-0.329-0.219-0.71-0.37-1.069-0.546c-0.36-0.168-0.72-0.337-1.075-0.503
		c-0.36-0.15-0.734-0.255-1.081-0.378c-0.348-0.116-0.684-0.228-1.004-0.334c-0.31-0.122-0.635-0.153-0.918-0.219
		c-1.132-0.223-1.887-0.372-1.887-0.372s0.678,0.348,1.696,0.87c0.247,0.138,0.531,0.245,0.791,0.446
		c0.266,0.182,0.546,0.374,0.835,0.573c0.284,0.202,0.588,0.388,0.872,0.615c0.273,0.239,0.55,0.481,0.828,0.724
		c0.271,0.245,0.559,0.462,0.792,0.739c0.241,0.26,0.478,0.516,0.708,0.764c0.238,0.235,0.417,0.511,0.606,0.747
		c0.135,0.185,0.27,0.351,0.389,0.518c0.12-0.771,0.337-1.766,0.718-2.908c-0.067-0.043-0.128-0.091-0.199-0.131
		C17.858,21.15,17.522,20.946,17.18,20.74z"/>
</g>
<g enable-background="new    ">
	<path fill="#08A045" d="M81.408,106.755h-2.245v4.875h-1.524V99.952h3.77c2.748,0,4.038,1.508,4.038,3.418
		C85.446,105.147,84.306,106.755,81.408,106.755z M81.408,105.498c1.743,0,2.48-0.821,2.48-2.128c0-1.357-0.737-2.161-2.48-2.161
		h-2.245v4.289H81.408z"/>
	<path fill="#08A045" d="M91.796,99.952v10.438h4.088v1.24h-5.613V99.952H91.796z"/>
	<path fill="#08A045" d="M107.345,109.033h-5.093l-0.938,2.597h-1.608l4.222-11.61h1.759l4.205,11.61h-1.608L107.345,109.033z
		 M104.798,101.896l-2.111,5.897h4.222L104.798,101.896z"/>
	<path fill="#08A045" d="M123.848,99.936v11.694h-1.525l-6.132-9.299v9.299h-1.524V99.936h1.524l6.132,9.282v-9.282H123.848z"/>
	<path fill="#08A045" d="M128.657,99.952h7.908v1.24h-3.184v10.438h-1.524v-10.438h-3.2V99.952z"/>
	<path fill="#08A045" d="M152.549,106.755h-2.245v4.875h-1.524V99.952h3.77c2.748,0,4.038,1.508,4.038,3.418
		C156.587,105.147,155.448,106.755,152.549,106.755z M152.549,105.498c1.742,0,2.479-0.821,2.479-2.128
		c0-1.357-0.737-2.161-2.479-2.161h-2.245v4.289H152.549z"/>
	<path fill="#08A045" d="M166.707,111.747c-3.283,0-5.863-2.463-5.863-5.965c0-3.501,2.58-5.964,5.863-5.964
		c3.301,0,5.864,2.463,5.864,5.964C172.572,109.284,170.008,111.747,166.707,111.747z M166.707,110.424
		c2.463,0,4.307-1.793,4.307-4.642c0-2.864-1.844-4.641-4.307-4.641s-4.306,1.776-4.306,4.641
		C162.402,108.631,164.245,110.424,166.707,110.424z"/>
	<path fill="#08A045" d="M176.611,99.952h1.625l2.546,9.901l2.815-9.901h1.709l2.681,9.868l2.563-9.868h1.642l-3.385,11.678h-1.709
		l-2.714-9.399l-2.814,9.399l-1.692,0.017L176.611,99.952z"/>
	<path fill="#08A045" d="M203.084,101.193h-4.759v3.903h4.256v1.257h-4.256v4.021h4.759v1.257h-6.283V99.936h6.283V101.193z"/>
	<path fill="#08A045" d="M212.098,99.952c2.748,0,4.055,1.524,4.055,3.435c0,1.491-0.821,2.915-2.781,3.351l2.932,4.893h-1.826
		l-2.781-4.775h-1.843v4.775h-1.524V99.952H212.098z M212.098,101.209h-2.245v4.423h2.245c1.726,0,2.479-0.938,2.479-2.245
		C214.577,102.064,213.84,101.209,212.098,101.209z"/>
	<path fill="#08A045" d="M227.73,101.193h-4.759v3.903h4.256v1.257h-4.256v4.021h4.759v1.257h-6.283V99.936h6.283V101.193z"/>
	<path fill="#08A045" d="M242.809,105.817c0,3.619-2.362,5.813-6.199,5.813h-3.636V99.952h3.636
		C240.447,99.952,242.809,102.197,242.809,105.817z M236.61,110.373c3.049,0,4.641-1.709,4.641-4.557
		c0-2.849-1.592-4.624-4.641-4.624h-2.111v9.181H236.61z"/>
	<path fill="#08A045" d="M258.928,106.755h-2.245v4.875h-1.524V99.952h3.77c2.748,0,4.038,1.508,4.038,3.418
		C262.966,105.147,261.826,106.755,258.928,106.755z M258.928,105.498c1.742,0,2.479-0.821,2.479-2.128
		c0-1.357-0.737-2.161-2.479-2.161h-2.245v4.289H258.928z"/>
	<path fill="#08A045" d="M274.074,101.193h-4.759v3.903h4.256v1.257h-4.256v4.021h4.759v1.257h-6.283V99.936h6.283V101.193z"/>
	<path fill="#08A045" d="M284.612,111.747c-3.283,0-5.863-2.463-5.863-5.965c0-3.501,2.58-5.964,5.863-5.964
		c3.301,0,5.864,2.463,5.864,5.964C290.476,109.284,287.913,111.747,284.612,111.747z M284.612,110.424
		c2.463,0,4.307-1.793,4.307-4.642c0-2.864-1.844-4.641-4.307-4.641s-4.306,1.776-4.306,4.641
		C280.307,108.631,282.149,110.424,284.612,110.424z"/>
	<path fill="#08A045" d="M299.189,106.755h-2.245v4.875h-1.524V99.952h3.77c2.748,0,4.038,1.508,4.038,3.418
		C303.227,105.147,302.088,106.755,299.189,106.755z M299.189,105.498c1.742,0,2.479-0.821,2.479-2.128
		c0-1.357-0.737-2.161-2.479-2.161h-2.245v4.289H299.189z"/>
	<path fill="#08A045" d="M309.578,99.952v10.438h4.088v1.24h-5.612V99.952H309.578z"/>
	<path fill="#08A045" d="M324.507,101.193h-4.759v3.903h4.256v1.257h-4.256v4.021h4.759v1.257h-6.283V99.936h6.283V101.193z"/>
</g>
<g enable-background="new    ">
	<path fill="#08A045" d="M81.625,56.902h-2.111v4.725h-1.91V49.982h4.021c2.765,0,4.122,1.575,4.122,3.469
		C85.747,55.109,84.658,56.902,81.625,56.902z M81.625,55.344c1.491,0,2.162-0.72,2.162-1.893c0-1.207-0.67-1.91-2.162-1.91h-2.111
		v3.803H81.625z"/>
	<path fill="#08A045" d="M92.248,49.982v10.104h3.938v1.541h-5.848V49.982H92.248z"/>
	<path fill="#08A045" d="M107.562,59.248h-4.875l-0.837,2.379h-1.994l4.171-11.661h2.212l4.172,11.661H108.4L107.562,59.248z
		 M105.133,52.278l-1.91,5.411h3.803L105.133,52.278z"/>
	<path fill="#08A045" d="M124.551,49.966v11.661h-1.91l-5.746-8.695v8.695h-1.91V49.966h1.91l5.746,8.679v-8.679H124.551z"/>
	<path fill="#08A045" d="M129.227,49.982h8.126v1.559h-3.1v10.086h-1.91V51.541h-3.116V49.982z"/>
	<path fill="#08A045" d="M153.186,56.902h-2.11v4.725h-1.91V49.982h4.021c2.765,0,4.122,1.575,4.122,3.469
		C157.308,55.109,156.219,56.902,153.186,56.902z M153.186,55.344c1.491,0,2.161-0.72,2.161-1.893c0-1.207-0.67-1.91-2.161-1.91
		h-2.11v3.803H153.186z"/>
	<path fill="#08A045" d="M167.209,61.744c-3.283,0-5.947-2.463-5.947-5.965c0-3.484,2.664-5.947,5.947-5.947
		c3.317,0,5.948,2.463,5.948,5.947C173.158,59.281,170.527,61.744,167.209,61.744z M167.209,60.086c2.312,0,3.987-1.676,3.987-4.307
		c0-2.63-1.675-4.271-3.987-4.271c-2.312,0-3.987,1.642-3.987,4.271C163.222,58.41,164.898,60.086,167.209,60.086z"/>
	<path fill="#08A045" d="M176.862,49.982h2.028l2.412,9.483l2.614-9.483h2.145l2.429,9.433l2.43-9.433h2.044l-3.451,11.645h-2.161
		l-2.446-8.812l-2.597,8.812l-2.145,0.017L176.862,49.982z"/>
	<path fill="#08A045" d="M203.737,51.524h-4.523v3.418h4.021V56.5h-4.021v3.568h4.523v1.559h-6.434V49.966h6.434V51.524z"/>
	<path fill="#08A045" d="M212.868,49.982c2.765,0,4.122,1.592,4.122,3.485c0,1.374-0.737,2.848-2.698,3.334l2.882,4.825h-2.278
		l-2.681-4.657h-1.457v4.657h-1.91V49.982H212.868z M212.868,51.541h-2.11v3.903h2.11c1.491,0,2.161-0.82,2.161-1.977
		C215.029,52.295,214.359,51.541,212.868,51.541z"/>
	<path fill="#08A045" d="M228.635,51.524h-4.523v3.418h4.021V56.5h-4.021v3.568h4.523v1.559h-6.434V49.966h6.434V51.524z"/>
	<path fill="#08A045" d="M243.73,55.847c0,3.586-2.446,5.78-6.183,5.78h-3.803V49.982h3.803
		C241.284,49.982,243.73,52.244,243.73,55.847z M237.548,60.068c2.748,0,4.223-1.574,4.223-4.222c0-2.664-1.475-4.306-4.223-4.306
		h-1.893v8.527H237.548z"/>
	<path fill="#08A045" d="M259.53,56.902h-2.11v4.725h-1.91V49.982h4.02c2.765,0,4.122,1.575,4.122,3.469
		C263.652,55.109,262.563,56.902,259.53,56.902z M259.53,55.344c1.491,0,2.161-0.72,2.161-1.893c0-1.207-0.67-1.91-2.161-1.91h-2.11
		v3.803H259.53z"/>
	<path fill="#08A045" d="M274.678,51.524h-4.523v3.418h4.021V56.5h-4.021v3.568h4.523v1.559h-6.434V49.966h6.434V51.524z"/>
	<path fill="#08A045" d="M285.099,61.744c-3.283,0-5.947-2.463-5.947-5.965c0-3.484,2.664-5.947,5.947-5.947
		c3.317,0,5.948,2.463,5.948,5.947C291.047,59.281,288.416,61.744,285.099,61.744z M285.099,60.086c2.312,0,3.987-1.676,3.987-4.307
		c0-2.63-1.675-4.271-3.987-4.271c-2.312,0-3.987,1.642-3.987,4.271C281.111,58.41,282.787,60.086,285.099,60.086z"/>
	<path fill="#08A045" d="M299.709,56.902h-2.11v4.725h-1.91V49.982h4.021c2.765,0,4.122,1.575,4.122,3.469
		C303.831,55.109,302.741,56.902,299.709,56.902z M299.709,55.344c1.491,0,2.161-0.72,2.161-1.893c0-1.207-0.67-1.91-2.161-1.91
		h-2.11v3.803H299.709z"/>
	<path fill="#08A045" d="M310.332,49.982v10.104h3.937v1.541h-5.847V49.982H310.332z"/>
	<path fill="#08A045" d="M325.059,51.524h-4.523v3.418h4.021V56.5h-4.021v3.568h4.523v1.559h-6.434V49.966h6.434V51.524z"/>
</g>
</svg>
