<?xml version="1.0" encoding="utf-8"?>
<!-- Generator: Adobe Illustrator 17.0.0, SVG Export Plug-In . SVG Version: 6.00 Build 0)  -->
<!DOCTYPE svg PUBLIC "-//W3C//DTD SVG 1.1//EN" "http://www.w3.org/Graphics/SVG/1.1/DTD/svg11.dtd">
<svg version="1.1" id="Layer_1" xmlns="http://www.w3.org/2000/svg" xmlns:xlink="http://www.w3.org/1999/xlink" x="0px" y="0px"
	 width="65px" height="65px" viewBox="0 0 65 65" enable-background="new 0 0 65 65" xml:space="preserve">
<path stroke="#03CE6A" stroke-width="6.6533" stroke-miterlimit="10" d="M97.518,139.009"/>
<path fill="none" stroke="#03CE6A" stroke-width="6" stroke-miterlimit="10" d="M24.509,61.669V27.044c0,0,0-19.685,35.943-19.685
	c0,0,3.762,40.364-33.283,40.364"/>
<g>
	<path fill="#03CE6A" d="M23.137,40.924c0,0,0.349-0.433,0.816-1.198s1.282-1.951,2.2-3.361c0.463-0.645,1.038-1.407,1.613-2.168
		s1.269-1.507,1.954-2.374c0.682-0.758,1.38-1.612,2.17-2.367c0.802-0.755,1.592-1.498,2.394-2.252
		c0.91-0.751,1.697-1.387,2.607-2.138c0.906-0.632,1.693-1.279,2.596-1.803s1.686-1.051,2.589-1.575
		c0.792-0.419,1.575-0.947,2.364-1.258c0.789-0.312,1.457-0.615,2.018-0.933c0.557-0.199,1.115-0.409,1.565-0.611
		c0.896-0.308,1.346-0.51,1.346-0.51s-0.453,0.322-1.249,0.849c-0.45,0.202-0.903,0.524-1.467,0.95s-1.129,0.852-1.813,1.275
		c-0.672,0.423-1.363,1.061-2.038,1.592s-1.37,1.289-2.156,1.924c-0.679,0.639-1.373,1.396-2.056,2.155
		c-0.682,0.758-1.38,1.612-1.954,2.374c-0.578,0.869-1.272,1.615-1.85,2.485c-0.578,0.869-1.048,1.742-1.622,2.492
		c-0.47,0.873-0.937,1.626-1.296,2.394s-0.706,1.525-1.065,2.293c-0.595,1.42-1.075,2.628-1.437,3.492
		c-0.362,0.876-0.595,1.42-0.595,1.42c-0.713,1.752-2.616,2.461-4.369,1.748c-1.752-0.713-2.461-2.616-1.748-4.369
		C22.896,41.36,22.903,41.145,23.137,40.924L23.137,40.924z"/>
</g>
<path fill="none" stroke="#03CE6A" stroke-width="1.1059" stroke-miterlimit="10" d="M18.758,38.666"/>
<path fill="none" stroke="#03CE6A" stroke-width="4.5" stroke-miterlimit="10" d="M18.56,31.122
	c-16.917,0-15.809-19.344-15.809-19.344c13.934-1.653,19.907,3.205,19.907,3.205"/>
<g>
	<path fill="#03CE6A" d="M99.274,30.641c0,0,0.349-0.433,0.816-1.198c0.467-0.765,1.282-1.951,2.2-3.361
		c0.463-0.645,1.038-1.407,1.613-2.168c0.575-0.761,1.269-1.507,1.954-2.374c0.682-0.758,1.38-1.612,2.17-2.367
		c0.802-0.755,1.592-1.498,2.394-2.252c0.91-0.751,1.697-1.387,2.607-2.138c0.906-0.632,1.693-1.279,2.596-1.803
		s1.686-1.051,2.589-1.575c0.792-0.419,1.575-0.947,2.364-1.258c0.789-0.312,1.457-0.615,2.018-0.933
		c0.557-0.199,1.115-0.409,1.565-0.611c0.896-0.308,1.346-0.51,1.346-0.51s-0.453,0.322-1.249,0.849
		c-0.45,0.202-0.903,0.524-1.467,0.95s-1.129,0.852-1.813,1.275c-0.672,0.423-1.363,1.061-2.038,1.592s-1.37,1.289-2.156,1.924
		c-0.679,0.639-1.373,1.396-2.056,2.155c-0.682,0.758-1.38,1.612-1.954,2.374c-0.578,0.869-1.272,1.615-1.85,2.485
		c-0.578,0.869-1.048,1.742-1.622,2.492c-0.47,0.873-0.937,1.626-1.296,2.394s-0.706,1.525-1.065,2.293
		c-0.595,1.42-1.075,2.628-1.437,3.492c-0.362,0.876-0.595,1.42-0.595,1.42c-0.713,1.752-2.616,2.461-4.369,1.748
		c-1.752-0.713-2.461-2.616-1.748-4.369C99.033,31.077,99.04,30.862,99.274,30.641L99.274,30.641z"/>
</g>
<g>
	<path fill="#03CE6A" d="M122.432,45.69c0,0,0.349-0.433,0.816-1.198c0.467-0.765,1.282-1.951,2.2-3.361
		c0.463-0.645,1.038-1.407,1.613-2.168c0.575-0.761,1.269-1.507,1.954-2.374c0.682-0.758,1.38-1.612,2.17-2.367
		c0.802-0.755,1.592-1.498,2.394-2.252c0.91-0.751,1.697-1.387,2.607-2.138c0.906-0.632,1.693-1.279,2.596-1.803
		s1.686-1.051,2.589-1.575c0.792-0.419,1.575-0.947,2.364-1.258c0.789-0.312,1.457-0.615,2.018-0.933
		c0.557-0.199,1.115-0.409,1.565-0.611c0.896-0.308,1.346-0.51,1.346-0.51s-0.453,0.322-1.249,0.849
		c-0.45,0.202-0.903,0.524-1.467,0.95s-1.129,0.852-1.813,1.275c-0.672,0.423-1.363,1.061-2.038,1.592s-1.37,1.289-2.156,1.924
		c-0.679,0.639-1.373,1.396-2.056,2.155c-0.682,0.758-1.38,1.612-1.954,2.374c-0.578,0.869-1.272,1.615-1.85,2.485
		c-0.578,0.869-1.048,1.742-1.622,2.492c-0.47,0.873-0.937,1.626-1.296,2.394c-0.359,0.768-0.706,1.525-1.065,2.293
		c-0.595,1.42-1.075,2.628-1.437,3.492c-0.362,0.876-0.595,1.42-0.595,1.42c-0.713,1.752-2.616,2.461-4.369,1.748
		c-1.752-0.713-2.461-2.616-1.748-4.369C122.191,46.126,122.198,45.911,122.432,45.69L122.432,45.69z"/>
</g>
<g>
	<path fill="#03CE6A" d="M87.026-0.402c0,0,0.349-0.433,0.816-1.198c0.467-0.765,1.282-1.951,2.2-3.361
		c0.463-0.645,1.038-1.407,1.613-2.168c0.575-0.761,1.269-1.507,1.954-2.374c0.682-0.758,1.38-1.612,2.17-2.367
		c0.802-0.755,1.592-1.498,2.394-2.252c0.91-0.751,1.697-1.387,2.607-2.138c0.906-0.632,1.693-1.279,2.596-1.803
		s1.686-1.051,2.589-1.575c0.792-0.419,1.575-0.947,2.364-1.258c0.789-0.312,1.457-0.615,2.018-0.933
		c0.557-0.199,1.115-0.409,1.565-0.611c0.896-0.308,1.346-0.51,1.346-0.51s-0.453,0.322-1.249,0.849
		c-0.45,0.202-0.903,0.524-1.467,0.95s-1.129,0.852-1.813,1.275c-0.672,0.423-1.363,1.061-2.038,1.592s-1.37,1.289-2.156,1.924
		c-0.679,0.639-1.373,1.396-2.056,2.155c-0.682,0.758-1.38,1.612-1.954,2.374c-0.578,0.869-1.272,1.615-1.85,2.485
		c-0.578,0.869-1.048,1.742-1.622,2.492c-0.47,0.873-0.937,1.626-1.296,2.394s-0.706,1.525-1.065,2.293
		c-0.595,1.42-1.075,2.628-1.437,3.492c-0.362,0.876-0.595,1.42-0.595,1.42c-0.713,1.752-2.616,2.461-4.369,1.748
		c-1.752-0.713-2.461-2.616-1.748-4.369C86.785,0.034,86.792-0.181,87.026-0.402L87.026-0.402z"/>
</g>
</svg>
