<?xml version="1.0" encoding="utf-8"?>
<!-- Generator: Adobe Illustrator 17.1.0, SVG Export Plug-In . SVG Version: 6.00 Build 0)  -->
<!DOCTYPE svg PUBLIC "-//W3C//DTD SVG 1.1//EN" "http://www.w3.org/Graphics/SVG/1.1/DTD/svg11.dtd">
<svg version="1.1" id="Layer_1" xmlns="http://www.w3.org/2000/svg" xmlns:xlink="http://www.w3.org/1999/xlink" x="0px" y="0px"
	 viewBox="0 0 600 150" enable-background="new 0 0 600 150" xml:space="preserve">
<image overflow="visible" enable-background="new    " width="2500" height="625" xlink:href="buynow.png"  transform="matrix(0.24 0 0 0.24 -8071.0005 -7969.5)">
</image>
<path fill="#646464" d="M525,0H75C33.6,0,0,33.6,0,75s33.6,75,75,75h450c41.4,0,75-33.6,75-75S566.4,0,525,0z"/>
<g enable-background="new    ">
	<path fill="#CCCCCC" d="M117.3,106H87.9V42.8h28.4c12.9,0,20.5,6.4,20.5,16.4c0,7.6-4.6,12.6-10.7,14.4c7.4,1.5,12.1,8,12.1,15.2
		C138.3,99.2,130.7,106,117.3,106z M113.4,55.1h-10.1v13.2h10.1c5,0,7.8-2.3,7.8-6.6C121.2,57.5,118.4,55.1,113.4,55.1z M114.5,79.6
		h-11.2v13.9h11.3c5.1,0,8.1-2.3,8.1-6.8S119.6,79.6,114.5,79.6z"/>
	<path fill="#CCCCCC" d="M147,42.8h15.4v37.8c0,7.5,3.7,11.8,11,11.8s11.2-4.3,11.2-11.8V42.8h15.4v37.7c0,17.5-12.2,26.1-26.8,26.1
		c-14.7,0-26.1-8.6-26.1-26.1V42.8z"/>
	<path fill="#CCCCCC" d="M205.7,42.8h17.5l12.2,26.5l12.1-26.5h17.3L243,85.1V106h-15.4V85.1L205.7,42.8z"/>
	<path fill="#CCCCCC" d="M346.7,42.8V106h-15.4l-25.7-39v39h-15.4V42.8h15.4L331.3,82V42.8H346.7z"/>
	<path fill="#CCCCCC" d="M387.7,106.6c-17.9,0-32.5-13.4-32.5-32.4c0-19,14.6-32.3,32.5-32.3c18,0,32.3,13.3,32.3,32.3
		S405.6,106.6,387.7,106.6z M387.7,92.6c10.1,0,16.6-7.3,16.6-18.4c0-11.3-6.6-18.4-16.6-18.4c-10.3,0-16.7,7.1-16.7,18.4
		C371,85.3,377.4,92.6,387.7,92.6z"/>
	<path fill="#CCCCCC" d="M425.2,42.8h16.5l9.1,46l11.3-46H479l10.8,46l9.2-46h16.6L499,106h-18.6l-10.1-41.6L459.9,106h-18.6
		L425.2,42.8z"/>
</g>
</svg>
