<?xml version="1.0" encoding="utf-8"?>
<!-- Generator: Adobe Illustrator 17.1.0, SVG Export Plug-In . SVG Version: 6.00 Build 0)  -->
<!DOCTYPE svg PUBLIC "-//W3C//DTD SVG 1.1//EN" "http://www.w3.org/Graphics/SVG/1.1/DTD/svg11.dtd">
<svg version="1.1" id="Layer_1" xmlns="http://www.w3.org/2000/svg" xmlns:xlink="http://www.w3.org/1999/xlink" x="0px" y="0px"
	 viewBox="0.7 225 600 150" enable-background="new 0.7 225 600 150" xml:space="preserve">
<image overflow="visible" enable-background="new    " width="2500" height="625" xlink:href="buynow.png"  transform="matrix(0.24 0 0 0.24 -8071.0005 -7744.5)">
</image>
<path fill="#646464" d="M525.7,225h-450c-41.4,0-75,33.6-75,75s33.6,75,75,75h450c41.4,0,75-33.6,75-75S567.1,225,525.7,225z"/>
<g>
	<path fill="#CCCCCC" d="M97.8,308.6h-9.1v21.7H74v-60.4h23.8c14.8,0,22.2,8.3,22.2,19.4C120,299.4,113.2,308.6,97.8,308.6z
		 M96.7,296.9c5.8,0,8.3-2.9,8.3-7.6c0-4.6-2.5-7.6-8.3-7.6h-8v15.1h8V296.9z"/>
	<path fill="#CCCCCC" d="M127.4,269.9h14.7V306c0,7.1,3.5,11.3,10.5,11.3s10.7-4.1,10.7-11.3v-36.1H178v36
		c0,16.7-11.7,24.9-25.6,24.9c-14,0-24.9-8.3-24.9-24.9L127.4,269.9L127.4,269.9z"/>
	<path fill="#CCCCCC" d="M213,269.9c14.8,0,22.2,8.5,22.2,19c0,7.6-4.1,14.7-13.4,17.5l13.9,23.9h-16.6l-12.6-22.8H203v22.8h-14.7
		v-60.4H213z M212.1,282.2H203v15h9.1c5.5,0,8.1-2.8,8.1-7.6C220.2,285.1,217.6,282.2,212.1,282.2z"/>
	<path fill="#CCCCCC" d="M272.2,269.3c14.4,0,25.2,8.1,28.6,21.2h-16.2c-2.5-5.2-7.1-7.7-12.6-7.7c-9,0-15.2,6.7-15.2,17.4
		s6.2,17.4,15.2,17.4c5.6,0,10.1-2.6,12.6-7.7h16.2c-3.4,13.1-14.3,21.1-28.6,21.1c-17.8,0-30.4-12.6-30.4-30.7
		S254.4,269.3,272.2,269.3z"/>
	<path fill="#CCCCCC" d="M347.5,305.5h-22.9v24.9h-14.7V270h14.7v23.7h22.9V270h14.7v60.4h-14.7V305.5z"/>
	<path fill="#CCCCCC" d="M410.3,319.7h-22.5l-3.6,10.7h-15.4l21.8-60.4h17l21.8,60.4h-15.6L410.3,319.7z M399.1,286.2l-7.4,22.1
		h14.9L399.1,286.2z"/>
	<path fill="#CCCCCC" d="M458,330.9c-13,0-23.1-6.4-23.6-18.7h15.7c0.4,4.6,3.4,6.9,7.5,6.9c4.3,0,7.1-2.2,7.1-5.7
		c0-11.2-30.2-5.2-30-26.6c0-11.4,9.4-17.8,22-17.8c13.2,0,22,6.5,22.6,18.1h-15.9c-0.3-3.9-3-6.2-7-6.3c-3.5-0.1-6.2,1.7-6.2,5.5
		c0,10.5,29.8,5.8,29.8,26C480,322.5,472.1,330.9,458,330.9z"/>
	<path fill="#CCCCCC" d="M526,281.7h-22.3v12.2h19.7v11.4h-19.7v13.2H526v11.8h-37v-60.4h37V281.7z"/>
</g>
</svg>
