<?xml version="1.0" encoding="utf-8"?>
<!-- Generator: Adobe Illustrator 17.0.0, SVG Export Plug-In . SVG Version: 6.00 Build 0)  -->
<!DOCTYPE svg PUBLIC "-//W3C//DTD SVG 1.1//EN" "http://www.w3.org/Graphics/SVG/1.1/DTD/svg11.dtd">
<svg version="1.1" id="Layer_1" xmlns="http://www.w3.org/2000/svg" xmlns:xlink="http://www.w3.org/1999/xlink" x="0px" y="0px"
	 width="600px" height="150px" viewBox="0 0 600 150" enable-background="new 0 0 600 150" xml:space="preserve">
<image overflow="visible" enable-background="new    " width="2500" height="625" xlink:href="buynow.png"  transform="matrix(0.24 0 0 0.24 -8071.0005 -7969.5)">
</image>
<path d="M525,0H75C33.579,0,0,33.579,0,75s33.579,75,75,75h450c41.421,0,75-33.579,75-75S566.421,0,525,0z"/>
<g enable-background="new    ">
	<path fill="#FFFFFF" d="M117.346,105.996H87.917V42.818h28.439c12.87,0,20.519,6.39,20.519,16.38c0,7.649-4.59,12.6-10.709,14.399
		c7.38,1.529,12.149,8.01,12.149,15.209C138.315,99.246,130.666,105.996,117.346,105.996z M113.386,55.148h-10.08v13.229h10.08
		c5.04,0,7.83-2.25,7.83-6.57C121.216,57.488,118.426,55.148,113.386,55.148z M114.466,79.627h-11.16v13.949h11.339
		c5.13,0,8.1-2.34,8.1-6.84S119.596,79.627,114.466,79.627z"/>
	<path fill="#FFFFFF" d="M146.957,42.818h15.39v37.799c0,7.469,3.69,11.789,10.979,11.789s11.16-4.32,11.16-11.789V42.818h15.389
		v37.709c0,17.459-12.239,26.098-26.819,26.098c-14.669,0-26.099-8.639-26.099-26.098V42.818z"/>
	<path fill="#FFFFFF" d="M205.726,42.818h17.459l12.239,26.459l12.149-26.459h17.279l-21.869,42.299v20.879h-15.39V85.117
		L205.726,42.818z"/>
	<path fill="#FFFFFF" d="M346.661,42.818v63.178h-15.39l-25.738-38.969v38.969h-15.39V42.818h15.39l25.738,39.149V42.818H346.661z"
		/>
	<path fill="#FFFFFF" d="M387.702,106.625c-17.909,0-32.488-13.408-32.488-32.398c0-18.989,14.579-32.309,32.488-32.309
		c17.999,0,32.309,13.319,32.309,32.309C420.011,93.217,405.611,106.625,387.702,106.625z M387.702,92.586
		c10.08,0,16.649-7.289,16.649-18.359c0-11.25-6.569-18.359-16.649-18.359c-10.26,0-16.739,7.109-16.739,18.359
		C370.963,85.297,377.442,92.586,387.702,92.586z"/>
	<path fill="#FFFFFF" d="M425.233,42.818h16.469l9.09,45.989l11.25-45.989h16.919l10.8,45.989l9.18-45.989h16.56l-16.47,63.178
		h-18.629l-10.08-41.579l-10.439,41.579h-18.629L425.233,42.818z"/>
</g>
</svg>
